<svg width="286" height="180" viewBox="0 0 286 180" fill="none" xmlns="http://www.w3.org/2000/svg">
<path d="M129.687 38.0684H133.427V42.6997H129.687V38.0684Z" fill="white"/>
<path d="M119.763 21.8193H123.504V26.4507H119.763V21.8193Z" fill="white"/>
<path d="M77.5647 54.2588H176.942C179.929 54.2582 182.7 55.8132 184.256 58.3626L206.719 95.1776L237.675 104.882C242.459 106.383 245.629 110.922 245.391 115.93L243.986 145.334H34.1164V126.481C34.1159 110.048 39.8364 94.1275 50.2956 81.4529L69.668 57.9794C71.6129 55.6226 74.509 54.258 77.5647 54.2588V54.2588Z" fill="#E9E9E9"/>
<path d="M126.844 37.0024C124.301 36.8863 121.852 36.3174 119.495 35.2958V29.5144C120.842 30.1994 122.304 30.774 123.883 31.2384C125.462 31.6912 126.849 31.9175 128.045 31.9175C129.032 31.9175 129.752 31.8014 130.204 31.5693C130.669 31.3255 130.901 30.9249 130.901 30.3677C130.901 29.9846 130.733 29.6595 130.396 29.3925C130.071 29.1255 129.519 28.8237 128.742 28.487C127.975 28.1503 126.936 27.744 125.625 27.268C124.15 26.7224 122.96 26.1129 122.055 25.4396C121.149 24.7546 120.487 23.9942 120.07 23.1584C119.663 22.3109 119.46 21.2603 119.46 20.0065C119.46 18.0909 120.075 16.5934 121.306 15.5137C122.537 14.434 124.382 13.7665 126.844 13.5111V11.1254H130.448V13.4763C132.758 13.604 135.086 14.1728 137.431 15.1828L135.359 20.1458C132.933 19.0545 130.744 18.5089 128.794 18.5089C127.865 18.5089 127.209 18.625 126.826 18.8572C126.455 19.0777 126.269 19.4086 126.269 19.8497C126.269 20.2328 126.402 20.5521 126.669 20.8075C126.948 21.0513 127.424 21.3299 128.097 21.6434C128.771 21.9452 129.705 22.2993 130.901 22.7056C133.327 23.5647 135.069 24.5457 136.125 25.6486C137.182 26.7398 137.71 28.1503 137.71 29.8801C137.71 31.8305 137.089 33.4151 135.846 34.6341C134.616 35.8531 132.816 36.6077 130.448 36.8979V40.2588H126.844V37.0024Z" fill="#44E0B7"/>
<path d="M238.46 120.144V124.995C238.46 127.619 240.587 129.746 243.211 129.746H244.724L245.385 115.929C245.385 115.752 245.385 115.571 245.385 115.394H243.2C240.581 115.4 238.46 117.525 238.46 120.144H238.46Z" fill="#CCCCCC"/>
<path d="M238.46 120.145V124.995C238.46 127.619 240.587 129.746 243.211 129.746" stroke="black" stroke-width="0.283327"/>
<path d="M38.8475 129.133V122.269C38.8475 120.735 37.6044 119.492 36.0709 119.492H34.4633C34.2319 121.806 34.1153 124.135 34.1134 126.478V131.909H36.0571C36.7959 131.913 37.5057 131.622 38.0294 131.101C38.5531 130.58 38.8476 129.871 38.8475 129.133Z" fill="#CCCCCC"/>
<path d="M206.713 95.177L185.933 61.1191H127.546V87.2331C127.545 89.3397 128.382 91.3603 129.871 92.8501C131.36 94.34 133.381 95.177 135.487 95.177H206.713Z" fill="#F4F4F4"/>
<path d="M203.728 95.1773L200.487 89.8685C198.872 87.2229 196.434 85.1804 193.546 84.0542L190.825 82.9908C190.584 82.8951 190.315 82.9 190.078 83.0044C189.841 83.1088 189.656 83.304 189.564 83.5461C189.313 84.0788 189.505 84.7155 190.009 85.0205C190.883 85.6064 190.353 86.9475 189.936 87.7249C189.868 87.8533 189.736 87.9357 189.59 87.9414C189.445 87.9471 189.307 87.8753 189.228 87.7527L184.28 80.0504C184.186 79.9024 184.007 79.8312 183.836 79.8733C183.666 79.9153 183.541 80.0613 183.525 80.2364C183.517 80.3259 183.539 80.4156 183.586 80.4919L188.834 88.9216C188.923 89.0642 188.917 89.2468 188.817 89.3826C187.496 91.1892 186.379 93.1363 185.485 95.1884L203.728 95.1773Z" fill="#CCCCCC"/>
<path d="M184.453 81.8824L188.829 88.91C188.918 89.0525 188.912 89.2351 188.812 89.3709C187.491 91.1775 186.374 93.1246 185.48 95.1768H203.714L200.488 89.8679C198.873 87.2223 196.434 85.1798 193.546 84.0537L190.825 82.9902C190.585 82.8945 190.316 82.8994 190.079 83.0038C189.842 83.1082 189.656 83.3034 189.565 83.5456C189.313 84.0782 189.505 84.7149 190.009 85.0199C190.884 85.6058 190.353 86.9469 189.937 87.7243C189.868 87.8527 189.736 87.9351 189.591 87.9408C189.445 87.9465 189.307 87.8747 189.229 87.7521L184.281 80.0498" stroke="black" stroke-width="0.283327"/>
<path d="M143.545 85.9949C143.687 83.2183 143.49 81.258 143.215 79.9169C142.9 78.4554 141.606 77.4133 140.111 77.418H136.34C135.166 77.4136 134.086 78.062 133.538 79.1006C131.709 82.6352 130.395 88.691 129.665 92.6449C131.168 94.2696 133.282 95.1917 135.496 95.1883H144.303C143.653 92.1697 143.398 89.0793 143.545 85.9949Z" fill="#CCCCCC"/>
<path d="M120.194 87.2331V61.1191H67.0773L50.2955 81.4522C46.8143 85.6692 43.8328 90.2747 41.4103 95.177H112.247C114.355 95.1785 116.376 94.3421 117.867 92.8521C119.357 91.3621 120.194 89.3407 120.194 87.2331Z" fill="#F4F4F4"/>
<path d="M77.5173 77.4073H73.7495C72.5749 77.4017 71.4948 78.0504 70.9479 79.0899C68.6488 83.5325 67.1661 91.9429 66.633 95.1776H79.9607C80.471 92.1385 80.8076 89.0728 80.9686 85.9954C81.1103 83.2188 80.9131 81.2585 80.6382 79.9174C80.3268 78.4452 79.022 77.3959 77.5173 77.4073Z" fill="#CCCCCC"/>
<path fill-rule="evenodd" clip-rule="evenodd" d="M143.545 85.9949C143.686 83.2183 143.489 81.258 143.214 79.9169C142.9 78.4554 141.605 77.4133 140.11 77.418H136.34C135.165 77.4136 134.086 78.062 133.538 79.1006C131.708 82.6352 130.395 88.691 129.665 92.6449C131.168 94.2696 133.282 95.1917 135.495 95.1883H144.303C143.652 92.1697 143.397 89.0793 143.545 85.9949V85.9949Z" stroke="black" stroke-width="0.283327"/>
<path fill-rule="evenodd" clip-rule="evenodd" d="M77.5173 77.4063H73.7494C72.5748 77.4007 71.4947 78.0494 70.9478 79.089C68.6488 83.5315 67.1661 91.9419 66.633 95.1766H79.9607C80.471 92.1375 80.8075 89.0718 80.9686 85.9944C81.1102 83.2178 80.9131 81.2575 80.6382 79.9164C80.3267 78.4443 79.0219 77.3949 77.5173 77.4063V77.4063Z" stroke="black" stroke-width="0.283327"/>
<path fill-rule="evenodd" clip-rule="evenodd" d="M206.713 95.177L185.933 61.1191H127.546V87.2331C127.545 89.3397 128.382 91.3603 129.871 92.8501C131.36 94.34 133.381 95.177 135.487 95.177H206.713Z" stroke="black" stroke-width="0.283327"/>
<path d="M34.1164 143.129H244.092V147.994C244.092 149.374 242.973 150.492 241.593 150.492H37.7898C35.7672 150.492 34.1275 148.853 34.1275 146.83V143.129L34.1164 143.129Z" fill="#F4F4F4"/>
<path d="M89.9536 145.112H81.0685C80.9549 136.616 74.0348 129.788 65.5375 129.788C57.0403 129.788 50.1202 136.616 50.0066 145.112H41.1215C41.2642 131.729 52.1537 120.955 65.5375 120.955C78.9214 120.955 89.8109 131.729 89.9536 145.112Z" fill="#F4F4F4"/>
<circle cx="65.5389" cy="145.112" r="19.9721" fill="black" stroke="black" stroke-width="0.283327"/>
<circle cx="65.5388" cy="145.111" r="9.98745" fill="#CCCCCC"/>
<circle cx="65.5389" cy="145.112" r="6.98872" fill="#E9E9E9"/>
<path d="M237.322 145.112H228.437C228.323 136.616 221.403 129.788 212.906 129.788C204.409 129.788 197.489 136.616 197.375 145.112H188.49C188.633 131.729 199.522 120.955 212.906 120.955C226.29 120.955 237.179 131.729 237.322 145.112Z" fill="#F4F4F4"/>
<circle cx="212.907" cy="145.112" r="19.9721" fill="black" stroke="black" stroke-width="0.283327"/>
<circle cx="212.907" cy="145.111" r="9.98745" fill="#CCCCCC"/>
<circle cx="212.907" cy="145.112" r="6.98872" fill="#E9E9E9"/>
<rect x="80.8077" y="103.271" width="6.76659" height="2.17131" rx="0.810316" fill="white"/>
<path d="M86.7799 105.443H81.6015" stroke="black" stroke-width="0.283327"/>
<rect x="134.904" y="103.271" width="6.76659" height="2.17131" rx="0.810316" fill="white"/>
<path d="M140.877 105.443H135.695" stroke="black" stroke-width="0.283327"/>
<path d="M118.044 62.6384C118.06 62.634 118.07 62.6198 118.07 62.6037C118.07 62.5876 118.06 62.5734 118.044 62.569C118.029 62.5734 118.018 62.5876 118.018 62.6037C118.018 62.6198 118.029 62.634 118.044 62.6384Z" fill="black"/>
<path d="M118.044 62.6384C118.06 62.634 118.07 62.6198 118.07 62.6037C118.07 62.5876 118.06 62.5734 118.044 62.569C118.029 62.5734 118.018 62.5876 118.018 62.6037C118.018 62.6198 118.029 62.634 118.044 62.6384Z" fill="black"/>
<path d="M184.722 72.9284C184.844 72.3925 185.378 72.0574 185.914 72.1799C186.45 72.3024 186.785 72.8362 186.662 73.3722L183.729 86.2021C183.606 86.738 183.072 87.0731 182.536 86.9506C182 86.8281 181.665 86.2943 181.788 85.7583L184.722 72.9284Z" fill="black"/>
<path d="M139.458 69.5439H140.624C140.824 69.5439 141.015 69.6232 141.156 69.7643C141.297 69.9054 141.377 70.0968 141.377 70.2964V74.739C141.377 74.9385 141.297 75.1299 141.156 75.271C141.015 75.4122 140.824 75.4914 140.624 75.4914H137.348C136.288 75.4914 135.429 74.6324 135.429 73.5728C135.435 71.3503 137.235 69.55 139.458 69.5439Z" fill="#CCCCCC"/>
<path fill-rule="evenodd" clip-rule="evenodd" d="M139.458 69.5439H140.624C140.824 69.5439 141.015 69.6232 141.156 69.7643C141.297 69.9054 141.377 70.0968 141.377 70.2964V74.739C141.377 74.9385 141.297 75.1299 141.156 75.271C141.015 75.4122 140.824 75.4914 140.624 75.4914H137.348C136.288 75.4914 135.429 74.6324 135.429 73.5728C135.435 71.3503 137.235 69.55 139.458 69.5439V69.5439Z" stroke="black" stroke-width="0.283327"/>
<path d="M138.639 77.1154V75.5771" stroke="black" stroke-width="0.283327"/>
<path d="M76.8702 69.5439H78.0363C78.4519 69.5439 78.7888 69.8808 78.7888 70.2964V74.739C78.7888 75.1545 78.4519 75.4914 78.0363 75.4914H74.7627C73.7031 75.4914 72.8441 74.6324 72.8441 73.5728C72.8502 71.3513 74.6487 69.5516 76.8702 69.5439V69.5439Z" fill="#CCCCCC"/>
<path fill-rule="evenodd" clip-rule="evenodd" d="M76.8702 69.5439H78.0363C78.4519 69.5439 78.7888 69.8808 78.7888 70.2964V74.739C78.7888 75.1545 78.4519 75.4914 78.0363 75.4914H74.7627C73.7031 75.4914 72.8441 74.6324 72.8441 73.5728C72.8502 71.3513 74.6487 69.5516 76.8702 69.5439V69.5439Z" stroke="black" stroke-width="0.283327"/>
<path d="M76.04 77.1154V75.5771" stroke="black" stroke-width="0.283327"/>
<path d="M124.12 102.374V150.493" stroke="black" stroke-width="0.283327"/>
<path d="M116.595 122.354H173.316C173.331 122.347 173.342 122.321 173.342 122.292C173.342 122.263 173.331 122.237 173.316 122.229H116.595C116.58 122.237 116.569 122.263 116.569 122.292C116.569 122.321 116.58 122.347 116.595 122.354Z" fill="black"/>
<path d="M108.185 133.211H143.448C143.463 133.219 143.478 133.209 143.487 133.186C143.496 133.164 143.496 133.133 143.487 133.111C143.478 133.088 143.463 133.078 143.448 133.086H108.185C108.17 133.078 108.154 133.088 108.146 133.111C108.137 133.133 108.137 133.164 108.146 133.186C108.154 133.209 108.17 133.219 108.185 133.211Z" fill="black"/>
<path d="M164.229 27.2541C163.567 27.2541 163.03 26.7173 163.03 26.0552C163.03 25.3931 163.567 24.8564 164.229 24.8564V27.2541ZM216.978 66.8156L209.874 54.9347L223.715 54.7227L216.978 66.8156ZM164.229 24.8564C174.949 24.8564 183.585 24.7324 190.475 25.048C197.35 25.3629 202.667 26.1184 206.703 27.9711C210.825 29.8635 213.539 32.8658 215.267 37.4432C216.965 41.9444 217.715 47.9776 218.011 55.9851L215.615 56.0737C215.32 48.1055 214.576 42.4042 213.023 38.2898C211.499 34.2516 209.204 31.7573 205.703 30.1501C202.115 28.5032 197.196 27.756 190.365 27.4431C183.548 27.1309 175.01 27.2541 164.229 27.2541V24.8564Z" fill="#CCCCCC"/>
<path d="M47.322 67.0039C47.322 67.666 46.7853 68.2028 46.1232 68.2028C45.4611 68.2028 44.9244 67.666 44.9244 67.0039L47.322 67.0039ZM94.1421 29.4411L81.9294 35.9586L82.3914 22.1234L94.1421 29.4411ZM44.9244 67.0039C44.9244 58.2608 45.2625 51.3812 46.2908 46.0102C47.3208 40.6309 49.0656 36.6407 51.9747 33.7969C54.8865 30.9506 58.8203 29.394 63.9325 28.5829C69.0315 27.7738 75.4301 27.6877 83.3845 27.8824L83.3258 30.2794C75.3782 30.0848 69.1719 30.1792 64.3083 30.9509C59.4579 31.7205 56.0714 33.1452 53.6508 35.5115C51.2274 37.8804 49.6274 41.3342 48.6457 46.4611C47.6625 51.5964 47.322 58.2854 47.322 67.0039L44.9244 67.0039Z" fill="#CCCCCC"/>
</svg>
