<svg width="1514" height="357" viewBox="0 0 1514 357" fill="none" xmlns="http://www.w3.org/2000/svg">
<path d="M228 212.674H202.331C203.5 200.707 180.588 190.313 172.132 203.609C178.5 185.707 158.5 167.207 141.934 186.989C131.364 172.385 109 148.207 89.0861 155.262C70.7239 161.767 72.9801 180.442 75.4967 186.989C67.4437 184.471 54.8874 186.989 54.8874 199.565C54.8874 215.277 69.457 216.703 70.9669 217.207H-1.52588e-05" stroke="#181A1D" stroke-width="2" stroke-linejoin="round"/>
<path opacity="0.7" d="M1377 299H1397.15C1400.84 291.551 1409.24 279.7 1413.26 291.89C1415.95 284.102 1423.14 271.574 1430.39 283.763C1433.41 274.283 1442.08 256.134 1452.55 259.385C1463.03 262.635 1460.95 275.637 1458.6 281.732C1460.95 281.393 1465.45 282.341 1464.64 288.842C1468 287.488 1474.91 286.201 1475.72 291.89C1476.53 297.578 1474.71 299 1473.71 299H1514" stroke="#181A1D" stroke-linejoin="round"/>
<path d="M448 356H437.265C435.297 351.903 430.824 345.385 428.676 352.089C427.245 347.806 423.416 340.916 419.551 347.62C417.941 342.405 413.325 332.424 407.743 334.212C402.16 335.999 403.27 343.15 404.522 346.503C403.27 346.316 400.872 346.838 401.301 350.413C399.512 349.668 395.826 348.961 395.397 352.089C394.968 355.218 395.934 356 396.471 356H375" stroke="#181A1D" stroke-linejoin="round"/>
<path d="M1254 63.8663C1259.41 64.2218 1270.67 64.5063 1272.4 62.7997C1274.04 61.1842 1282.28 60.7157 1286.82 60.6702C1287.26 60.6658 1287.64 60.3846 1287.78 59.9693C1290.75 50.9904 1298.34 37.7687 1307.27 49.8335C1307.69 50.4073 1308.57 50.4222 1309.06 49.8957C1313.48 45.0592 1324.07 41.4339 1325 53.1664V56.2427C1325 57.1103 1326.07 57.6072 1326.82 57.1638C1333.87 52.9678 1345.12 56.0732 1338.49 65.5963C1337.99 66.3272 1338.52 67.3965 1339.4 67.3359L1359 65.9998" stroke="#181A1D" stroke-linejoin="round"/>
<path d="M411 11.901C407.856 12.1064 401.315 12.2707 400.309 11.2848C399.393 10.3868 394.928 10.1023 392.238 10.0587C391.802 10.0516 391.419 9.77026 391.276 9.35745C389.529 4.31531 385.361 -2.6778 380.443 3.29818C379.991 3.84747 379.097 3.87124 378.574 3.38937C375.803 0.837819 370.262 -0.695292 369.752 5.71984V6.5523C369.752 7.41857 368.656 7.94604 367.859 7.60483C364.02 5.95972 358.954 7.55124 361.374 12.0321C361.797 12.8164 361.258 13.8968 360.369 13.8365L350 13.1335" stroke="#181A1D" stroke-linejoin="round"/>
</svg>
