<svg width="124" height="94" viewBox="0 0 124 94" fill="none" xmlns="http://www.w3.org/2000/svg">
<path d="M61.0209 29.3753H111.938C114.092 29.3753 115.854 27.6128 115.854 25.4587V13.7087C115.854 11.5545 114.092 9.79199 111.938 9.79199H61.0209C58.8667 9.79199 57.1042 11.5545 57.1042 13.7087V25.4587C57.1042 27.6128 58.8667 29.3753 61.0209 29.3753ZM61.0209 13.7087H111.938V25.4587H61.0209V13.7087Z" fill="#200A52"/>
<path d="M113.896 33.292H106.063C104.985 33.292 104.104 34.1732 104.104 35.2503C104.104 36.3274 104.985 37.2087 106.063 37.2087H113.896C114.973 37.2087 115.854 36.3274 115.854 35.2503C115.854 34.1732 114.973 33.292 113.896 33.292Z" fill="#200A52"/>
<path d="M98.2292 33.292H90.3958C89.3188 33.292 88.4375 34.1732 88.4375 35.2503C88.4375 36.3274 89.3188 37.2087 90.3958 37.2087H98.2292C99.3063 37.2087 100.188 36.3274 100.188 35.2503C100.188 34.1732 99.3063 33.292 98.2292 33.292Z" fill="#200A52"/>
<path d="M82.5624 33.292H74.7291C73.652 33.292 72.7708 34.1732 72.7708 35.2503C72.7708 36.3274 73.652 37.2087 74.7291 37.2087H82.5624C83.6395 37.2087 84.5208 36.3274 84.5208 35.2503C84.5208 34.1732 83.6395 33.292 82.5624 33.292Z" fill="#200A52"/>
<path d="M59.0626 37.2087H66.8959C67.973 37.2087 68.8542 36.3274 68.8542 35.2503C68.8542 34.1732 67.973 33.292 66.8959 33.292H59.0626C57.9855 33.292 57.1042 34.1732 57.1042 35.2503C57.1042 36.3274 57.9855 37.2087 59.0626 37.2087Z" fill="#200A52"/>
<path d="M59.0626 52.875H66.8959C67.973 52.875 68.8542 51.9938 68.8542 50.9167V43.0833C68.8542 42.0063 67.973 41.125 66.8959 41.125H59.0626C57.9855 41.125 57.1042 42.0063 57.1042 43.0833V50.9167C57.1042 51.9938 57.9855 52.875 59.0626 52.875ZM61.0209 45.0417H64.9376V48.9583H61.0209V45.0417Z" fill="#200A52"/>
<path d="M82.5624 41.125H74.7291C73.652 41.125 72.7708 42.0063 72.7708 43.0833V50.9167C72.7708 51.9938 73.652 52.875 74.7291 52.875H82.5624C83.6395 52.875 84.5208 51.9938 84.5208 50.9167V43.0833C84.5208 42.0063 83.6395 41.125 82.5624 41.125ZM80.6041 48.9583H76.6874V45.0417H80.6041V48.9583Z" fill="#200A52"/>
<path d="M98.2292 41.125H90.3958C89.3188 41.125 88.4375 42.0063 88.4375 43.0833V50.9167C88.4375 51.9938 89.3188 52.875 90.3958 52.875H98.2292C99.3063 52.875 100.188 51.9938 100.188 50.9167V43.0833C100.188 42.0063 99.3063 41.125 98.2292 41.125ZM96.2708 48.9583H92.3542V45.0417H96.2708V48.9583Z" fill="#200A52"/>
<path d="M113.896 41.125H106.063C104.985 41.125 104.104 42.0062 104.104 43.0833V66.5833C104.104 67.6604 104.985 68.5417 106.063 68.5417H113.896C114.973 68.5417 115.854 67.6604 115.854 66.5833V43.0833C115.854 42.0062 114.973 41.125 113.896 41.125ZM111.938 64.625H108.021V45.0417H111.938V64.625Z" fill="#200A52"/>
<path d="M59.0626 68.542H66.8959C67.973 68.542 68.8542 67.6607 68.8542 66.5837V58.7503C68.8542 57.6732 67.973 56.792 66.8959 56.792H59.0626C57.9855 56.792 57.1042 57.6732 57.1042 58.7503V66.5837C57.1042 67.6607 57.9855 68.542 59.0626 68.542ZM61.0209 60.7087H64.9376V64.6253H61.0209V60.7087Z" fill="#200A52"/>
<path d="M82.5624 56.792H74.7291C73.652 56.792 72.7708 57.6732 72.7708 58.7503V66.5837C72.7708 67.6607 73.652 68.542 74.7291 68.542H82.5624C83.6395 68.542 84.5208 67.6607 84.5208 66.5837V58.7503C84.5208 57.6732 83.6395 56.792 82.5624 56.792ZM80.6041 64.6253H76.6874V60.7087H80.6041V64.6253Z" fill="#200A52"/>
<path d="M98.2292 56.792H90.3958C89.3188 56.792 88.4375 57.6732 88.4375 58.7503V66.5837C88.4375 67.6607 89.3188 68.542 90.3958 68.542H98.2292C99.3063 68.542 100.188 67.6607 100.188 66.5837V58.7503C100.188 57.6732 99.3063 56.792 98.2292 56.792ZM96.2708 64.6253H92.3542V60.7087H96.2708V64.6253Z" fill="#200A52"/>
<path d="M59.0626 84.208H66.8959C67.973 84.208 68.8542 83.3268 68.8542 82.2497V74.4163C68.8542 73.3393 67.973 72.458 66.8959 72.458H59.0626C57.9855 72.458 57.1042 73.3393 57.1042 74.4163V82.2497C57.1042 83.3268 57.9855 84.208 59.0626 84.208ZM61.0209 76.3747H64.9376V80.2913H61.0209V76.3747Z" fill="#200A52"/>
<path d="M82.5624 72.458H74.7291C73.652 72.458 72.7708 73.3393 72.7708 74.4163V82.2497C72.7708 83.3268 73.652 84.208 74.7291 84.208H82.5624C83.6395 84.208 84.5208 83.3268 84.5208 82.2497V74.4163C84.5208 73.3393 83.6395 72.458 82.5624 72.458ZM80.6041 80.2913H76.6874V76.3747H80.6041V80.2913Z" fill="#200A52"/>
<path d="M98.2292 72.458H90.3958C89.3188 72.458 88.4375 73.3393 88.4375 74.4163V82.2497C88.4375 83.3268 89.3188 84.208 90.3958 84.208H98.2292C99.3063 84.208 100.188 83.3268 100.188 82.2497V74.4163C100.188 73.3393 99.3063 72.458 98.2292 72.458ZM96.2708 80.2913H92.3542V76.3747H96.2708V80.2913Z" fill="#200A52"/>
<path d="M113.896 72.458H106.063C104.985 72.458 104.104 73.3393 104.104 74.4163V82.2497C104.104 83.3268 104.985 84.208 106.063 84.208H113.896C114.973 84.208 115.854 83.3268 115.854 82.2497V74.4163C115.854 73.3393 114.973 72.458 113.896 72.458ZM111.938 80.2913H108.021V76.3747H111.938V80.2913Z" fill="#200A52"/>
<path d="M55.1458 94H117.812C121.044 94 123.687 91.3563 123.687 88.125V5.875C123.687 2.64375 121.044 0 117.812 0H55.1458C51.9145 0 49.2708 2.64375 49.2708 5.875V88.125C49.2708 91.3563 51.9145 94 55.1458 94ZM53.1874 5.875C53.1874 4.79792 54.0687 3.91667 55.1458 3.91667H117.812C118.889 3.91667 119.771 4.79792 119.771 5.875V88.125C119.771 89.2021 118.889 90.0833 117.812 90.0833H55.1458C54.0687 90.0833 53.1874 89.2021 53.1874 88.125V5.875Z" fill="#200A52"/>
<g clip-path="url(#clip0)">
<path d="M13.638 11.2376L13.638 11.2376C18.6128 6.37019 24.6407 3.91667 31.6152 3.91667C38.5899 3.91667 44.604 6.37061 49.5476 11.2425C54.4918 16.1151 56.9932 22.0523 56.9932 28.9466C56.9932 33.6479 55.7674 37.9997 53.3194 41.9597L53.3168 41.9638C50.8449 45.9405 47.4875 49.0286 43.2791 51.2093C43.2791 51.2094 43.279 51.2094 43.279 51.2094L42.378 49.4706C42.3632 49.4783 42.3467 49.4823 42.33 49.4823C42.314 49.4823 42.298 49.4861 42.2837 49.4932C37.7901 51.715 35.5433 55.2914 35.5433 60.2226C35.5433 60.5247 35.2984 60.7695 34.9963 60.7695H24.8031C24.501 60.7695 24.2561 60.5247 24.2561 60.2226C24.2561 55.8469 25.4163 51.8193 27.7367 48.1398L13.638 11.2376ZM13.638 11.2376L13.633 11.2425M13.638 11.2376L13.633 11.2425M26.0781 47.0986C28.5908 43.0796 32.0111 40.0021 36.3027 37.8883C38.2213 36.8971 39.5643 35.6721 40.4379 34.2493C41.3131 32.8237 41.7893 31.0821 41.7893 28.9466C41.7893 26.1581 40.8237 23.8244 38.8423 21.8385C36.8256 19.8822 34.452 18.9216 31.6152 18.9216C28.7354 18.9216 26.3658 19.8885 24.3881 21.8383L26.0781 47.0986ZM26.0781 47.0986C23.5607 51.0919 22.2978 55.4809 22.2978 60.2226C22.2978 61.6062 23.4194 62.7279 24.8031 62.7279H34.9963C36.38 62.7279 37.5016 61.6062 37.5016 60.2226C37.5016 58.0628 37.9902 56.3105 38.8867 54.8836C39.7576 53.4973 41.0861 52.3025 42.9763 51.3368L26.0781 47.0986ZM13.633 11.2425C8.6888 16.1151 6.18742 22.0523 6.18742 28.9466M13.633 11.2425L6.18742 28.9466M6.18742 28.9466V32.5573M6.18742 28.9466V32.5573M6.18742 32.5573C6.18742 34.7204 7.94097 36.474 10.1041 36.474M6.18742 32.5573L10.1041 36.474M10.1041 36.474H17.4746M10.1041 36.474H17.4746M17.4746 36.474C19.6377 36.474 21.3913 34.7204 21.3913 32.5573M17.4746 36.474L21.3913 32.5573M21.3913 32.5573V28.9466M21.3913 32.5573V28.9466M21.3913 28.9466C21.3913 26.1625 22.3698 23.8286 24.3879 21.8385L21.3913 28.9466ZM22.1983 85.2908C22.1983 87.4539 23.9519 89.2074 26.115 89.2074H33.7839C35.947 89.2074 37.7005 87.4539 37.7005 85.2908V77.6219C37.7005 75.4588 35.947 73.7052 33.7839 73.7052H26.115C23.9519 73.7052 22.1983 75.4588 22.1983 77.6219V85.2908Z" stroke="#44E0B7" stroke-width="3.91667"/>
</g>
<defs>
<clipPath id="clip0">
<rect width="45.0417" height="90.0833" fill="white" transform="translate(0.3125 1.95801)"/>
</clipPath>
</defs>
</svg>
